<svg xmlns="http://www.w3.org/2000/svg" width="4001" height="213" fill="none"><mask id="a" width="4001" height="213" x="0" y="0" maskUnits="userSpaceOnUse" style="mask-type:luminance"><path fill="#fff" d="M.72.16h4000v212H.72V.16Z"/></mask><g mask="url(#a)"><mask id="b" width="6541" height="2160" x="-1501" y="-168" maskUnits="userSpaceOnUse" style="mask-type:luminance"><path fill="#fff" d="M-1500.43-167.84h6539.8v2159.77h-6539.8V-167.84Z"/></mask><g mask="url(#b)"><mask id="c" width="277" height="366" x="-165" y="-168" maskUnits="userSpaceOnUse" style="mask-type:luminance"><path fill="#fff" d="M-164.32-167.84h276.25v365.36h-276.25v-365.36Z"/></mask><g mask="url(#c)"><path fill="#FCFCFD" fill-rule="evenodd" d="M-19.81-118.67v49.17l37.5 19.84v63.1l45.9-23.96v113.11l-89.78 45.76-89.78-45.76V-5.11l47.8-24.16V-94.3l48.36-24.36Zm-14.07 80.71v29.78l-47.81 24.83v64.94l55.5 28.28L29.3 81.6V46.04L-16.6 70v-98.91l-17.3-9.05Z" clip-rule="evenodd"/></g><mask id="d" width="278" height="366" x="111" y="-168" maskUnits="userSpaceOnUse" style="mask-type:luminance"><path fill="#fff" d="M111.93-167.84H388.2v365.36H111.93v-365.36Z"/></mask><g mask="url(#d)"><path fill="#FCFCFD" fill-rule="evenodd" d="M256.44-118.67v49.17l37.51 19.84v63.1l45.89-23.96v113.11l-89.78 45.76-89.78-45.76V-5.11l47.81-24.16V-94.3l48.36-24.36Zm-14.07 80.71v29.78l-47.8 24.83v64.94l55.5 28.28 55.49-28.28V46.04L259.67 70v-98.91l-17.3-9.05Z" clip-rule="evenodd"/></g><mask id="e" width="277" height="366" x="388" y="-168" maskUnits="userSpaceOnUse" style="mask-type:luminance"><path fill="#fff" d="M388.19-167.84h276.25v365.36H388.2v-365.36Z"/></mask><g mask="url(#e)"><path fill="#FCFCFD" fill-rule="evenodd" d="M532.7-118.67v49.17l37.5 19.84v63.1l45.9-23.96v113.11l-89.78 45.76-89.78-45.76V-5.11l47.81-24.16V-94.3l48.35-24.36Zm-14.07 80.71v29.78l-47.81 24.83v64.94l55.5 28.28 55.5-28.28V46.04L535.91 70v-98.91l-17.3-9.05Z" clip-rule="evenodd"/></g><mask id="f" width="277" height="366" x="664" y="-168" maskUnits="userSpaceOnUse" style="mask-type:luminance"><path fill="#fff" d="M664.44-167.84H940.7v365.36H664.44v-365.36Z"/></mask><g mask="url(#f)"><path fill="#FCFCFD" fill-rule="evenodd" d="M808.96-118.67v49.17l37.5 19.84v63.1l45.89-23.96v113.11l-89.78 45.76-89.78-45.76V-5.11l47.81-24.16V-94.3l48.36-24.36Zm-14.08 80.71v29.78l-47.8 24.83v64.94l55.5 28.28 55.49-28.28V46.04L812.18 70v-98.91l-17.3-9.05Z" clip-rule="evenodd"/></g><mask id="g" width="277" height="366" x="940" y="-168" maskUnits="userSpaceOnUse" style="mask-type:luminance"><path fill="#fff" d="M940.7-167.84h276.25v365.36H940.7v-365.36Z"/></mask><g mask="url(#g)"><path fill="#FCFCFD" fill-rule="evenodd" d="M1085.21-118.67v49.17l37.51 19.84v63.1l45.89-23.96v113.11l-89.78 45.76-89.78-45.76V-5.11l47.81-24.16V-94.3l48.35-24.36Zm-14.07 80.71v29.78l-47.81 24.83v64.94l55.5 28.28 55.5-28.28V46.04L1088.44 70v-98.91l-17.3-9.05Z" clip-rule="evenodd"/></g><mask id="h" width="278" height="366" x="1216" y="-168" maskUnits="userSpaceOnUse" style="mask-type:luminance"><path fill="#fff" d="M1216.96-167.84h276.25v365.36h-276.25v-365.36Z"/></mask><g mask="url(#h)"><path fill="#FCFCFD" fill-rule="evenodd" d="M1361.47-118.67v49.17l37.51 19.84v63.1l45.88-23.96v113.11l-89.78 45.76-89.77-45.76V-5.11l47.81-24.16V-94.3l48.35-24.36Zm-14.07 80.71v29.78l-47.81 24.83v64.94l55.49 28.28 55.5-28.28V46.04L1364.7 70v-98.91l-17.3-9.05Z" clip-rule="evenodd"/></g><mask id="i" width="277" height="366" x="1493" y="-168" maskUnits="userSpaceOnUse" style="mask-type:luminance"><path fill="#fff" d="M1493.21-167.84h276.25v365.36h-276.25v-365.36Z"/></mask><g mask="url(#i)"><path fill="#FCFCFD" fill-rule="evenodd" d="M1637.72-118.67v49.17l37.51 19.84v63.1l45.89-23.96v113.11l-89.78 45.76-89.78-45.76V-5.11l47.81-24.16V-94.3l48.35-24.36Zm-14.07 80.71v29.78l-47.81 24.83v64.94l55.5 28.28 55.5-28.28V46.04L1640.95 70v-98.91l-17.3-9.05Z" clip-rule="evenodd"/></g><mask id="j" width="277" height="366" x="1769" y="-168" maskUnits="userSpaceOnUse" style="mask-type:luminance"><path fill="#fff" d="M1769.47-167.84h276.25v365.36h-276.25v-365.36Z"/></mask><g mask="url(#j)"><path fill="#FCFCFD" fill-rule="evenodd" d="M1913.98-118.67v49.17l37.51 19.84v63.1l45.88-23.96v113.11l-89.77 45.76-89.78-45.76V-5.11l47.81-24.16V-94.3l48.35-24.36Zm-14.07 80.71v29.78l-47.81 24.83v64.94l55.5 28.28 55.49-28.28V46.04L1917.21 70v-98.91l-17.3-9.05Z" clip-rule="evenodd"/></g><mask id="k" width="277" height="366" x="2045" y="-168" maskUnits="userSpaceOnUse" style="mask-type:luminance"><path fill="#fff" d="M2045.72-167.84h276.25v365.36h-276.25v-365.36Z"/></mask><g mask="url(#k)"><path fill="#FCFCFD" fill-rule="evenodd" d="M2190.24-118.67v49.17l37.5 19.84v63.1l45.89-23.96v113.11l-89.78 45.76-89.78-45.76V-5.11l47.81-24.16V-94.3l48.36-24.36Zm-14.08 80.71v29.78l-47.81 24.83v64.94l55.5 28.28 55.5-28.28V46.04L2193.46 70v-98.91l-17.3-9.05Z" clip-rule="evenodd"/></g><mask id="l" width="278" height="366" x="2321" y="-168" maskUnits="userSpaceOnUse" style="mask-type:luminance"><path fill="#fff" d="M2321.98-167.84h276.25v365.36h-276.25v-365.36Z"/></mask><g mask="url(#l)"><path fill="#FCFCFD" fill-rule="evenodd" d="M2466.49-118.67v49.17L2504-49.66v63.1l45.88-23.96v113.11l-89.77 45.76-89.78-45.76V-5.11l47.81-24.16V-94.3l48.35-24.36Zm-14.07 80.71v29.78l-47.81 24.83v64.94l55.5 28.28 55.49-28.28V46.04L2469.72 70v-98.91l-17.3-9.05Z" clip-rule="evenodd"/></g><mask id="m" width="277" height="366" x="2598" y="-168" maskUnits="userSpaceOnUse" style="mask-type:luminance"><path fill="#fff" d="M2598.23-167.84h276.25v365.36h-276.25v-365.36Z"/></mask><g mask="url(#m)"><path fill="#FCFCFD" fill-rule="evenodd" d="M2742.75-118.67v49.17l37.5 19.84v63.1l45.89-23.96v113.11l-89.78 45.76-89.78-45.76V-5.11l47.82-24.16V-94.3l48.35-24.36Zm-14.07 80.71v29.78l-47.82 24.83v64.94l55.5 28.28 55.5-28.28V46.04L2745.97 70v-98.91l-17.29-9.05Z" clip-rule="evenodd"/></g><mask id="n" width="277" height="366" x="2874" y="-168" maskUnits="userSpaceOnUse" style="mask-type:luminance"><path fill="#fff" d="M2874.49-167.84h276.25v365.36h-276.25v-365.36Z"/></mask><g mask="url(#n)"><path fill="#FCFCFD" fill-rule="evenodd" d="M3019-118.67v49.17l37.51 19.84v63.1l45.88-23.96v113.11l-89.77 45.76-89.78-45.76V-5.11l47.81-24.16V-94.3l48.35-24.36Zm-14.07 80.71v29.78l-47.81 24.83v64.94l55.5 28.28 55.5-28.28V46.04L3022.23 70v-98.91l-17.3-9.05Z" clip-rule="evenodd"/></g><mask id="o" width="277" height="366" x="3150" y="-168" maskUnits="userSpaceOnUse" style="mask-type:luminance"><path fill="#fff" d="M3150.74-167.84h276.25v365.36h-276.25v-365.36Z"/></mask><g mask="url(#o)"><path fill="#FCFCFD" fill-rule="evenodd" d="M3295.26-118.67v49.17l37.5 19.84v63.1l45.89-23.96v113.11l-89.78 45.76-89.77-45.76V-5.11l47.81-24.16V-94.3l48.35-24.36Zm-14.07 80.71v29.78l-47.82 24.83v64.94l55.5 28.28 55.5-28.28V46.04L3298.48 70v-98.91l-17.29-9.05Z" clip-rule="evenodd"/></g><mask id="p" width="278" height="366" x="3426" y="-168" maskUnits="userSpaceOnUse" style="mask-type:luminance"><path fill="#fff" d="M3427-167.84h276.25v365.36H3427v-365.36Z"/></mask><g mask="url(#p)"><path fill="#FCFCFD" fill-rule="evenodd" d="M3571.51-118.67v49.17l37.51 19.84v63.1l45.88-23.96v113.11l-89.77 45.76-89.78-45.76V-5.11l47.81-24.16V-94.3l48.35-24.36Zm-14.07 80.71v29.78l-47.81 24.83v64.94l55.5 28.28 55.5-28.28V46.04L3574.74 70v-98.91l-17.3-9.05Z" clip-rule="evenodd"/></g><mask id="q" width="277" height="366" x="3703" y="-168" maskUnits="userSpaceOnUse" style="mask-type:luminance"><path fill="#fff" d="M3703.26-167.84h276.25v365.36h-276.25v-365.36Z"/></mask><g mask="url(#q)"><path fill="#FCFCFD" fill-rule="evenodd" d="M3847.77-118.67v49.17l37.5 19.84v63.1l45.89-23.96v113.11l-89.78 45.76-89.77-45.76V-5.11l47.81-24.16V-94.3l48.35-24.36Zm-14.07 80.71v29.78l-47.81 24.83v64.94l55.49 28.28 55.5-28.28V46.04L3850.99 70v-98.91l-17.29-9.05Z" clip-rule="evenodd"/></g><mask id="r" width="277" height="366" x="-16" y="11" maskUnits="userSpaceOnUse" style="mask-type:luminance"><path fill="#fff" d="M-15.87 11.6H260.4v365.36H-15.86V11.6Z"/></mask><g mask="url(#r)"><path fill="#FCFCFD" fill-rule="evenodd" d="M128.65 60.77v49.17l37.5 19.84v63.1l45.89-23.96v113.11l-89.78 45.76-89.78-45.76v-107.7l47.81-24.16V85.13l48.36-24.36Zm-14.08 80.71v29.78l-47.8 24.83v64.94l55.5 28.29 55.49-28.3v-35.54l-45.89 23.96v-98.91l-17.3-9.05Z" clip-rule="evenodd"/></g><mask id="s" width="277" height="366" x="260" y="11" maskUnits="userSpaceOnUse" style="mask-type:luminance"><path fill="#fff" d="M260.39 11.6h276.25v365.36H260.4V11.6Z"/></mask><g mask="url(#s)"><path fill="#FCFCFD" fill-rule="evenodd" d="M404.9 60.77v49.17l37.5 19.84v63.1l45.9-23.96v113.11l-89.78 45.76-89.78-45.76v-107.7l47.81-24.16V85.13l48.35-24.36Zm-14.07 80.71v29.78l-47.81 24.83v64.94l55.5 28.29 55.5-28.3v-35.54l-45.9 23.96v-98.91l-17.29-9.05Z" clip-rule="evenodd"/></g><mask id="t" width="277" height="366" x="536" y="11" maskUnits="userSpaceOnUse" style="mask-type:luminance"><path fill="#fff" d="M536.65 11.6H812.9v365.36H536.65V11.6Z"/></mask><g mask="url(#t)"><path fill="#FCFCFD" fill-rule="evenodd" d="M681.16 60.77v49.17l37.5 19.84v63.1l45.89-23.96v113.11l-89.78 45.76L585 282.03v-107.7l47.8-24.16V85.13l48.36-24.36Zm-14.07 80.71v29.78l-47.82 24.83v64.94l55.5 28.29 55.5-28.3v-35.54l-45.89 23.96v-98.91l-17.3-9.05Z" clip-rule="evenodd"/></g><mask id="u" width="278" height="366" x="812" y="11" maskUnits="userSpaceOnUse" style="mask-type:luminance"><path fill="#fff" d="M812.9 11.6h276.26v365.36H812.9V11.6Z"/></mask><g mask="url(#u)"><path fill="#FCFCFD" fill-rule="evenodd" d="M957.41 60.77v49.17l37.5 19.84v63.1l45.9-23.96v113.11l-89.78 45.76-89.78-45.76v-107.7l47.81-24.16V85.13l48.35-24.36Zm-14.07 80.71v29.78l-47.81 24.83v64.94l55.5 28.29 55.5-28.3v-35.54l-45.9 23.96v-98.91l-17.29-9.05Z" clip-rule="evenodd"/></g><mask id="v" width="277" height="366" x="1089" y="11" maskUnits="userSpaceOnUse" style="mask-type:luminance"><path fill="#fff" d="M1089.16 11.6h276.25v365.36h-276.25V11.6Z"/></mask><g mask="url(#v)"><path fill="#FCFCFD" fill-rule="evenodd" d="M1233.67 60.77v49.17l37.51 19.84v63.1l45.88-23.96v113.11l-89.77 45.76-89.78-45.76v-107.7l47.81-24.16V85.13l48.35-24.36Zm-14.07 80.71v29.78l-47.81 24.83v64.94l55.5 28.29 55.49-28.3v-35.54l-45.88 23.96v-98.91l-17.3-9.05Z" clip-rule="evenodd"/></g><mask id="w" width="277" height="366" x="1365" y="11" maskUnits="userSpaceOnUse" style="mask-type:luminance"><path fill="#fff" d="M1365.41 11.6h276.25v365.36h-276.25V11.6Z"/></mask><g mask="url(#w)"><path fill="#FCFCFD" fill-rule="evenodd" d="M1509.93 60.77v49.17l37.5 19.84v63.1l45.89-23.96v113.11l-89.78 45.76-89.78-45.76v-107.7l47.82-24.16V85.13l48.35-24.36Zm-14.08 80.71v29.78l-47.81 24.83v64.94l55.5 28.29 55.5-28.3v-35.54l-45.89 23.96v-98.91l-17.3-9.05Z" clip-rule="evenodd"/></g><mask id="x" width="277" height="366" x="1641" y="11" maskUnits="userSpaceOnUse" style="mask-type:luminance"><path fill="#fff" d="M1641.67 11.6h276.25v365.36h-276.25V11.6Z"/></mask><g mask="url(#x)"><path fill="#FCFCFD" fill-rule="evenodd" d="M1786.18 60.77v49.17l37.51 19.84v63.1l45.88-23.96v113.11l-89.77 45.76-89.78-45.76v-107.7l47.81-24.16V85.13l48.35-24.36Zm-14.07 80.71v29.78l-47.81 24.83v64.94l55.5 28.29 55.5-28.3v-35.54l-45.89 23.96v-98.91l-17.3-9.05Z" clip-rule="evenodd"/></g><mask id="y" width="278" height="366" x="1917" y="11" maskUnits="userSpaceOnUse" style="mask-type:luminance"><path fill="#fff" d="M1917.92 11.6h276.25v365.36h-276.25V11.6Z"/></mask><g mask="url(#y)"><path fill="#FA462E" fill-rule="evenodd" d="M2062.44 60.77v49.17l37.5 19.84v63.1l45.89-23.96v113.11l-89.78 45.76-89.77-45.76v-107.7l47.81-24.16V85.13l48.35-24.36Zm-14.07 80.71v29.78l-47.82 24.83v64.94l55.5 28.29 55.5-28.3v-35.54l-45.89 23.96v-98.91l-17.29-9.05Z" clip-rule="evenodd"/></g><mask id="z" width="277" height="366" x="2194" y="11" maskUnits="userSpaceOnUse" style="mask-type:luminance"><path fill="#fff" d="M2194.18 11.6h276.25v365.36h-276.25V11.6Z"/></mask><g mask="url(#z)"><path fill="#FCFCFD" fill-rule="evenodd" d="M2338.69 60.77v49.17l37.51 19.84v63.1l45.89-23.96v113.11l-89.78 45.76-89.78-45.76v-107.7l47.81-24.16V85.13l48.35-24.36Zm-14.07 80.71v29.78l-47.81 24.83v64.94l55.5 28.29 55.5-28.3v-35.54l-45.89 23.96v-98.91l-17.3-9.05Z" clip-rule="evenodd"/></g><mask id="A" width="277" height="366" x="2470" y="11" maskUnits="userSpaceOnUse" style="mask-type:luminance"><path fill="#fff" d="M2470.44 11.6h276.25v365.36h-276.25V11.6Z"/></mask><g mask="url(#A)"><path fill="#FCFCFD" fill-rule="evenodd" d="M2614.95 60.77v49.17l37.5 19.84v63.1l45.89-23.96v113.11l-89.78 45.76-89.77-45.76v-107.7l47.81-24.16V85.13l48.35-24.36Zm-14.07 80.71v29.78l-47.81 24.83v64.94l55.49 28.29 55.5-28.3v-35.54l-45.89 23.96v-98.91l-17.29-9.05Z" clip-rule="evenodd"/></g><mask id="B" width="277" height="366" x="2746" y="11" maskUnits="userSpaceOnUse" style="mask-type:luminance"><path fill="#fff" d="M2746.69 11.6h276.25v365.36h-276.25V11.6Z"/></mask><g mask="url(#B)"><path fill="#FCFCFD" fill-rule="evenodd" d="M2891.2 60.77v49.17l37.51 19.84v63.1l45.89-23.96v113.11l-89.78 45.76-89.78-45.76v-107.7l47.81-24.16V85.13l48.35-24.36Zm-14.07 80.71v29.78l-47.81 24.83v64.94l55.5 28.29 55.5-28.3v-35.54l-45.89 23.96v-98.91l-17.3-9.05Z" clip-rule="evenodd"/></g><mask id="C" width="278" height="366" x="3022" y="11" maskUnits="userSpaceOnUse" style="mask-type:luminance"><path fill="#fff" d="M3022.95 11.6h276.25v365.36h-276.25V11.6Z"/></mask><g mask="url(#C)"><path fill="#FCFCFD" fill-rule="evenodd" d="M3167.46 60.77v49.17l37.5 19.84v63.1l45.89-23.96v113.11l-89.78 45.76-89.77-45.76v-107.7l47.81-24.16V85.13l48.35-24.36Zm-14.07 80.71v29.78l-47.81 24.83v64.94l55.49 28.29 55.5-28.3v-35.54l-45.88 23.96v-98.91l-17.3-9.05Z" clip-rule="evenodd"/></g><mask id="D" width="277" height="366" x="3299" y="11" maskUnits="userSpaceOnUse" style="mask-type:luminance"><path fill="#fff" d="M3299.2 11.6h276.25v365.36H3299.2V11.6Z"/></mask><g mask="url(#D)"><path fill="#FCFCFD" fill-rule="evenodd" d="M3443.71 60.77v49.17l37.51 19.84v63.1l45.89-23.96v113.11l-89.78 45.76-89.78-45.76v-107.7l47.81-24.16V85.13l48.35-24.36Zm-14.07 80.71v29.78l-47.81 24.83v64.94l55.5 28.29 55.5-28.3v-35.54l-45.89 23.96v-98.91l-17.3-9.05Z" clip-rule="evenodd"/></g><mask id="E" width="277" height="366" x="3575" y="11" maskUnits="userSpaceOnUse" style="mask-type:luminance"><path fill="#fff" d="M3575.46 11.6h276.25v365.36h-276.25V11.6Z"/></mask><g mask="url(#E)"><path fill="#FCFCFD" fill-rule="evenodd" d="M3719.97 60.77v49.17l37.51 19.84v63.1l45.88-23.96v113.11l-89.78 45.76-89.77-45.76v-107.7l47.81-24.16V85.13l48.35-24.36Zm-14.07 80.71v29.78l-47.81 24.83v64.94l55.49 28.29 55.5-28.3v-35.54l-45.88 23.96v-98.91l-17.3-9.05Z" clip-rule="evenodd"/></g><mask id="F" width="277" height="366" x="3851" y="11" maskUnits="userSpaceOnUse" style="mask-type:luminance"><path fill="#fff" d="M3851.71 11.6h276.25v365.36h-276.25V11.6Z"/></mask><g mask="url(#F)"><path fill="#FCFCFD" fill-rule="evenodd" d="M3996.22 60.77v49.17l37.51 19.84v63.1l45.89-23.96v113.11l-89.78 45.76-89.78-45.76v-107.7l47.81-24.16V85.13l48.35-24.36Zm-14.07 80.71v29.78l-47.81 24.83v64.94l55.5 28.29 55.5-28.3v-35.54l-45.89 23.96v-98.91l-17.3-9.05Z" clip-rule="evenodd"/></g></g></g></svg>