<svg width="301" height="70" viewBox="0 0 301 70" fill="none" xmlns="http://www.w3.org/2000/svg">
<g clip-path="url(#clip0_2986_230675)">
<path fill-rule="evenodd" clip-rule="evenodd" d="M25.6251 0.555878V13.2242L35.2881 18.3352V34.5896L47.1099 28.4182V57.5592L23.9803 69.3489L0.850708 57.5592V29.8127L13.1684 23.5883V6.83092L25.6251 0.555878ZM21.9999 21.3494V29.0206L9.68225 35.4172V52.1482L23.9803 59.4363L38.2784 52.1482V42.9911L26.4566 49.1624V23.6806L21.9999 21.3494Z" fill="#FA462E"/>
</g>
<path d="M59.5665 57.5634V18.3399H68.0836V50.0549H87.7514V57.5634H59.5665Z" fill="#FA462E"/>
<path d="M89.6663 57.5634V27.5294H97.9033V57.5634H89.6663ZM89.4422 23.383V16.8831H98.1834V23.383H89.4422Z" fill="#FA462E"/>
<path d="M110.623 57.5634L99.0245 27.5294H107.878L115.05 47.5334H115.442L121.718 27.5294H130.235L119.141 57.5634H110.623Z" fill="#FA462E"/>
<path d="M143.499 58.2918C133.021 58.2918 128.538 51.792 128.538 43.3869V41.7059C128.538 33.3009 133.301 26.801 143.667 26.801C153.865 26.801 157.956 32.6845 157.956 41.3137V43.8912H136.663V44.2274C136.663 49.3265 138.624 51.6239 143.667 51.6239C148.15 51.6239 149.887 49.5506 149.999 47.7015L150.055 46.861H157.956C157.843 52.8566 153.585 58.2918 143.499 58.2918ZM136.719 39.0163H149.999C149.607 34.9259 147.87 33.0768 143.499 33.0768C139.016 33.0768 137.055 34.9259 136.719 39.0163Z" fill="#FA462E"/>
<path d="M178.606 26.801C185.05 26.801 188.692 29.7147 188.692 37.3913V57.5634H180.455V40.137C180.455 35.3741 178.662 33.9733 174.628 33.9733C170.649 33.9733 168.52 35.3741 168.52 40.137V57.5634H160.283V16.6589H168.52V33.8052H168.968C170.481 29.2665 172.947 26.801 178.606 26.801Z" fill="#FA462E"/>
<path d="M205.996 58.2918C195.518 58.2918 191.035 51.792 191.035 43.3869V41.7059C191.035 33.3009 195.798 26.801 206.164 26.801C216.362 26.801 220.453 32.6845 220.453 41.3137V43.8912H199.16V44.2274C199.16 49.3265 201.121 51.6239 206.164 51.6239C210.647 51.6239 212.384 49.5506 212.496 47.7015L212.552 46.861H220.453C220.341 52.8566 216.082 58.2918 205.996 58.2918ZM199.216 39.0163H212.496C212.104 34.9259 210.367 33.0768 205.996 33.0768C201.513 33.0768 199.552 34.9259 199.216 39.0163Z" fill="#FA462E"/>
<path d="M248.868 58.0117C244.721 58.0117 242.312 56.2746 242.312 51.7359H241.864C240.127 55.9384 237.605 58.4039 231.666 58.4039C226.062 58.4039 222.14 55.4341 222.14 50.1109V48.542C222.14 43.6111 225.95 40.137 233.122 40.137H241.976V38.0077C241.976 34.4216 240.351 32.9647 236.709 32.9647C232.898 32.9647 231.385 34.2535 231.217 36.6069L231.161 37.3913H223.261C223.541 30.3311 227.799 26.6889 237.157 26.6889C245.898 26.6889 250.213 29.8828 250.213 38.3439V49.1023C250.213 50.6153 250.829 51.1756 252.342 51.1756H253.519V57.5634C252.286 57.7875 250.941 58.0117 248.868 58.0117ZM230.209 49.0463C230.209 51.0635 231.61 52.1842 234.355 52.1842C239.734 52.1842 241.976 50.6153 241.976 45.7964V45.0119H234.075C231.441 45.0119 230.209 46.3007 230.209 48.3739V49.0463Z" fill="#FA462E"/>
<path d="M265.236 58.0117C258.904 58.0117 256.327 55.4341 256.327 49.1023V34.2535H251.956V27.5294H256.327V21.3097L264.564 19.5166V27.5294H271.96V34.2535H264.564V48.598C264.564 50.1109 265.292 50.8394 266.805 50.8394H271.904V57.5634C269.943 57.7875 267.814 58.0117 265.236 58.0117Z" fill="#FA462E"/>
<path d="M287.027 58.2918C278.622 58.2918 273.187 55.9384 272.907 47.9256H280.639L280.695 48.7101C280.863 51.0635 282.881 52.0161 287.027 52.0161C291.23 52.0161 292.967 51.2316 292.967 49.3825V48.9342C292.967 47.0291 291.846 46.5248 289.156 46.1326L281.872 45.0679C276.605 44.2835 273.579 41.7059 273.579 36.5508V35.5422C273.579 29.9389 278.622 26.801 286.635 26.801C296.553 26.801 299.635 31.1716 299.915 37.1672H292.126L292.07 36.3827C291.902 34.0854 290.557 32.9087 286.467 32.9087C282.544 32.9087 281.143 33.9733 281.143 35.7103V36.1026C281.143 37.5594 282.152 38.2879 284.73 38.6241L291.566 39.6327C298.402 40.6413 300.755 43.6111 300.755 48.486V49.4386C300.755 55.0419 295.544 58.2918 287.027 58.2918Z" fill="#FA462E"/>
<defs>
<clipPath id="clip0_2986_230675">
<rect width="46.2592" height="68.7931" fill="white" transform="translate(0.850708 0.555878)"/>
</clipPath>
</defs>
</svg>
